<?xml version="1.0" encoding="UTF-8" standalone="no"?>
<!-- Created with Inkscape (http://www.inkscape.org/) -->

<svg
   width="88.006676mm"
   height="66.632256mm"
   viewBox="0 0 88.006676 66.632256"
   version="1.1"
   id="svg1"
   xmlns:inkscape="http://www.inkscape.org/namespaces/inkscape"
   xmlns:sodipodi="http://sodipodi.sourceforge.net/DTD/sodipodi-0.dtd"
   xmlns="http://www.w3.org/2000/svg"
   xmlns:svg="http://www.w3.org/2000/svg"
   xmlns:ns2="http://www.iki.fi/pav/software/textext/">
  <sodipodi:namedview
     id="namedview1"
     pagecolor="#ffffff"
     bordercolor="#000000"
     borderopacity="0.25"
     inkscape:showpageshadow="2"
     inkscape:pageopacity="0.0"
     inkscape:pagecheckerboard="0"
     inkscape:deskcolor="#d1d1d1"
     inkscape:document-units="mm"
     inkscape:zoom="2.2669113"
     inkscape:cx="320.48012"
     inkscape:cy="146.67535"
     inkscape:window-width="1312"
     inkscape:window-height="828"
     inkscape:window-x="97"
     inkscape:window-y="105"
     inkscape:window-maximized="0"
     inkscape:current-layer="g4307"
     showgrid="true">
    <inkscape:grid
       id="grid1"
       units="mm"
       originx="-117.14012"
       originy="-13.773527"
       spacingx="0.99999998"
       spacingy="1"
       empcolor="#0099e5"
       empopacity="0.30196078"
       color="#0099e5"
       opacity="0.14901961"
       empspacing="5"
       dotted="false"
       gridanglex="30"
       gridanglez="30"
       visible="true" />
  </sodipodi:namedview>
  <defs
     id="defs1" />
  <g
     inkscape:label="Layer 1"
     inkscape:groupmode="layer"
     id="layer1"
     transform="translate(-30.993323,-3.6442458)">
    <g
       id="g18"
       transform="translate(1.1417775,-1.9197317)">
      <path
         style="fill:none;stroke:#000000;stroke-width:0.668778;stroke-dasharray:none;stroke-opacity:1"
         d="m 30.169395,37.010476 c 0.321506,-0.983888 0.643012,-1.93465 0.964519,-2.284078 0.321506,-0.349525 0.643012,-0.07192 0.964668,0.664166 0.321506,0.736084 0.643012,1.883644 0.964518,2.75516 0.321506,0.871516 0.643012,1.407773 0.964519,1.289832 0.321506,-0.118039 0.643012,-0.885294 0.964518,-1.840454 0.321656,-0.95516 0.643162,-2.035687 0.964668,-2.595103 0.321506,-0.559416 0.643012,-0.558439 0.964519,0 0.321506,0.558439 0.643012,1.63965 0.964518,2.595103 0.321506,0.955453 0.643162,1.721242 0.964668,1.840454 0.321506,0.119114 0.643013,-0.418903 0.964519,-1.289832 0.321506,-0.87093 0.643012,-2.018294 0.964518,-2.75516 0.321506,-0.736865 0.643012,-1.012518 0.964668,-0.664166 0.321506,0.348255 0.643013,1.30019 0.964519,2.284078 0.321506,0.983888 0.643012,1.93465 0.964518,2.284078 0.321506,0.349525 0.643012,0.07192 0.964519,-0.664166 0.321506,-0.736084 0.643162,-1.883644 0.964668,-2.75516 0.321506,-0.871516 0.643012,-1.407773 0.964518,-1.289832 0.321506,0.118039 0.643012,0.885294 0.964519,1.840454 0.321506,0.95516 0.643012,2.035687 0.964668,2.595103 0.321506,0.559416 0.643012,0.558439 0.964518,0 0.321506,-0.558439 0.643012,-1.63965 0.964519,-2.595103 0.321506,-0.955453 0.643012,-1.721242 0.964518,-1.840454 0.321656,-0.119114 0.643162,0.418902 0.964668,1.289832 0.321506,0.87093 0.643013,2.018294 0.964519,2.75516 0.321506,0.736865 0.643012,1.012518 0.964518,0.664166 0.321506,-0.348255 0.643162,-1.30019 0.964668,-2.284078 0.321506,-0.983888 0.643013,-1.93465 0.964519,-2.284078 0.321506,-0.349525 0.643012,-0.07192 0.964518,0.664166 0.321506,0.736084 0.643012,1.883644 0.964519,2.75516 0.321655,0.871516 0.643162,1.407773 0.964668,1.289832 0.321506,-0.118039 0.643012,-0.885294 0.964518,-1.840454 0.321506,-0.95516 0.643012,-2.035687 0.964519,-2.595103 0.321506,-0.559416 0.643162,-0.558439 0.964668,0 0.321506,0.558439 0.643012,1.63965 0.964518,2.595103 0.321506,0.955453 0.643013,1.721242 0.964519,1.840454 0.321506,0.119114 0.643012,-0.418903 0.964668,-1.289832 0.321506,-0.87093 0.643012,-2.018294 0.964518,-2.75516 0.321506,-0.736865 0.643013,-1.012518 0.964519,-0.664166 0.321506,0.348255 0.643012,1.30019 0.964518,2.284078 l 3.212741,-0.01048"
         title="t sin(15*t)"
         id="path5" />
      <path
         style="fill:none;stroke:#000000;stroke-width:0.553;stroke-dasharray:none;stroke-opacity:1"
         d="M 71,37 Z"
         id="path9" />
      <path
         style="fill:none;stroke:#000000;stroke-width:0.553;stroke-dasharray:none;stroke-opacity:1"
         d="M 70.000002,37.999998 Z"
         id="path12" />
      <path
         style="fill:none;stroke:#000000;stroke-width:0.553;stroke-dasharray:none;stroke-opacity:1"
         d="M 71,37 69.000001,34.999998"
         id="path15" />
      <path
         style="fill:none;stroke:#000000;stroke-width:0.553;stroke-dasharray:none;stroke-opacity:1"
         d="m 71,37 -1.999999,1.999998"
         id="path16" />
      <path
         style="fill:none;stroke:#000000;stroke-width:0.553;stroke-dasharray:none;stroke-opacity:1"
         d="m 70.325249,37.674751 0.870265,-0.870265"
         id="path18" />
    </g>
    <ellipse
       style="fill:none;stroke:#000000;stroke-width:0.567575;stroke-dasharray:none;stroke-opacity:1"
       id="path19"
       ry="4.3544626"
       rx="4.3544636"
       cy="35"
       cx="79.645538" />
    <g
       id="g25"
       transform="rotate(-39.044692,47.634174,-43.899613)">
      <path
         style="fill:none;stroke:#000000;stroke-width:0.668778;stroke-dasharray:none;stroke-opacity:1"
         d="m 30.169395,37.010476 c 0.321506,-0.983888 0.643012,-1.93465 0.964519,-2.284078 0.321506,-0.349525 0.643012,-0.07192 0.964668,0.664166 0.321506,0.736084 0.643012,1.883644 0.964518,2.75516 0.321506,0.871516 0.643012,1.407773 0.964519,1.289832 0.321506,-0.118039 0.643012,-0.885294 0.964518,-1.840454 0.321656,-0.95516 0.643162,-2.035687 0.964668,-2.595103 0.321506,-0.559416 0.643012,-0.558439 0.964519,0 0.321506,0.558439 0.643012,1.63965 0.964518,2.595103 0.321506,0.955453 0.643162,1.721242 0.964668,1.840454 0.321506,0.119114 0.643013,-0.418903 0.964519,-1.289832 0.321506,-0.87093 0.643012,-2.018294 0.964518,-2.75516 0.321506,-0.736865 0.643012,-1.012518 0.964668,-0.664166 0.321506,0.348255 0.643013,1.30019 0.964519,2.284078 0.321506,0.983888 0.643012,1.93465 0.964518,2.284078 0.321506,0.349525 0.643012,0.07192 0.964519,-0.664166 0.321506,-0.736084 0.643162,-1.883644 0.964668,-2.75516 0.321506,-0.871516 0.643012,-1.407773 0.964518,-1.289832 0.321506,0.118039 0.643012,0.885294 0.964519,1.840454 0.321506,0.95516 0.643012,2.035687 0.964668,2.595103 0.321506,0.559416 0.643012,0.558439 0.964518,0 0.321506,-0.558439 0.643012,-1.63965 0.964519,-2.595103 0.321506,-0.955453 0.643012,-1.721242 0.964518,-1.840454 0.321656,-0.119114 0.643162,0.418902 0.964668,1.289832 0.321506,0.87093 0.643013,2.018294 0.964519,2.75516 0.321506,0.736865 0.643012,1.012518 0.964518,0.664166 0.321506,-0.348255 0.643162,-1.30019 0.964668,-2.284078 0.321506,-0.983888 0.643013,-1.93465 0.964519,-2.284078 0.321506,-0.349525 0.643012,-0.07192 0.964518,0.664166 0.321506,0.736084 0.643012,1.883644 0.964519,2.75516 0.321655,0.871516 0.643162,1.407773 0.964668,1.289832 0.321506,-0.118039 0.643012,-0.885294 0.964518,-1.840454 0.321506,-0.95516 0.643012,-2.035687 0.964519,-2.595103 0.321506,-0.559416 0.643162,-0.558439 0.964668,0 0.321506,0.558439 0.643012,1.63965 0.964518,2.595103 0.321506,0.955453 0.643013,1.721242 0.964519,1.840454 0.321506,0.119114 0.643012,-0.418903 0.964668,-1.289832 0.321506,-0.87093 0.643012,-2.018294 0.964518,-2.75516 0.321506,-0.736865 0.643013,-1.012518 0.964519,-0.664166 0.321506,0.348255 0.643012,1.30019 0.964518,2.284078 l 3.212741,-0.01048"
         title="t sin(15*t)"
         id="path20" />
      <path
         style="fill:none;stroke:#000000;stroke-width:0.553;stroke-dasharray:none;stroke-opacity:1"
         d="M 71,37 Z"
         id="path21" />
      <path
         style="fill:none;stroke:#000000;stroke-width:0.553;stroke-dasharray:none;stroke-opacity:1"
         d="M 70.000002,37.999998 Z"
         id="path22" />
      <path
         style="fill:none;stroke:#000000;stroke-width:0.553;stroke-dasharray:none;stroke-opacity:1"
         d="M 71,37 69.000001,34.999998"
         id="path23" />
      <path
         style="fill:none;stroke:#000000;stroke-width:0.553;stroke-dasharray:none;stroke-opacity:1"
         d="m 71,37 -1.999999,1.999998"
         id="path24" />
      <path
         style="fill:none;stroke:#000000;stroke-width:0.553;stroke-dasharray:none;stroke-opacity:1"
         d="m 70.325249,37.674751 0.870265,-0.870265"
         id="path25" />
    </g>
    <path
       style="fill:none;stroke:#000000;stroke-width:0.553;stroke-dasharray:none;stroke-opacity:1"
       d="M 85.000001,39.999999 115,69.999997"
       id="path28" />
    <path
       style="fill:none;stroke:#000000;stroke-width:0.553;stroke-dasharray:none;stroke-opacity:1"
       d="m 115,64.999996 v 5.000001 l -5,1e-6"
       id="path29" />
    <path
       style="fill:none;stroke:#000000;stroke-width:0.370229;stroke-dasharray:1.48092, 0.740459;stroke-dashoffset:0;stroke-opacity:1"
       d="M 86.000004,34.999999 H 119"
       id="path30" />
    <g
       transform="matrix(0.352778,0,0,0.352778,48.9196,27.3276)"
       ns2:version="1.9.0"
       ns2:texconverter="pdflatex"
       ns2:pdfconverter="inkscape"
       ns2:text="\\[\nE_0\n\\]"
       ns2:preamble="/Users/johnmeneghini/Library/Application Support/org.inkscape.Inkscape/config/inkscape/extensions/textext/default_packages.tex"
       ns2:scale="1.0"
       ns2:alignment="middle center"
       ns2:stroke-to-path="0"
       id="g4307"
       ns2:jacobian_sqrt="0.352778"
       style="stroke-width:1.56756;stroke-dasharray:none"
       inkscape:label="g4307">
      <defs
         id="id-afc2d55e-454f-42ff-be6e-382d7c25ee1f" />
      <g
         transform="matrix(2,0,0,2,-8.7317354,-7.5752753)"
         ns2:version="1.9.0"
         ns2:texconverter="pdflatex"
         ns2:pdfconverter="inkscape"
         ns2:text="\\[\nE\n\\]"
         ns2:preamble="/Users/johnmeneghini/Library/Application Support/org.inkscape.Inkscape/config/inkscape/extensions/textext/default_packages.tex"
         ns2:scale="2.0"
         ns2:alignment="middle center"
         ns2:stroke-to-path="0"
         id="g5418"
         ns2:jacobian_sqrt="2.0">
        <defs
           id="id-37227778-1230-42df-aec5-4e83c54b46b7" />
        <g
           fill="#000000"
           fill-opacity="1"
           id="id-34335e4d-cba2-4b25-8c0c-1d568ee9d6ba"
           transform="translate(-302.035,-139.939)">
          <g
             transform="translate(301.66,146.72)"
             id="g812">
            <path
               d="M 7.0625,-2.328125 C 7.078125,-2.375 7.109375,-2.4375 7.109375,-2.46875 c 0,0 0,-0.109375 -0.125,-0.109375 -0.09375,0 -0.109375,0.0625 -0.125,0.125 C 6.203125,-0.984375 5.84375,-0.3125 4.140625,-0.3125 H 2.6875 c -0.140625,0 -0.171875,0 -0.21875,0 -0.109375,-0.015625 -0.140625,-0.03125 -0.140625,-0.109375 0,-0.03125 0,-0.046875 0.046875,-0.21875 L 3.0625,-3.375 h 0.984375 c 0.84375,0 0.84375,0.21875 0.84375,0.46875 0,0.0625 0,0.1875 -0.0625,0.484375 C 4.8125,-2.375 4.796875,-2.34375 4.796875,-2.3125 c 0,0.046875 0.03125,0.109375 0.125,0.109375 C 5,-2.203125 5.03125,-2.25 5.078125,-2.40625 l 0.5625,-2.328125 c 0,-0.0625 -0.046875,-0.109375 -0.125,-0.109375 -0.078125,0 -0.109375,0.0625 -0.125,0.171875 -0.21875,0.765625 -0.390625,1 -1.3125,1 h -0.9375 l 0.59375,-2.40625 C 3.828125,-6.4375 3.84375,-6.46875 4.28125,-6.46875 H 5.6875 c 1.203125,0 1.515625,0.28125 1.515625,1.109375 0,0.234375 0,0.25 -0.046875,0.53125 0,0.046875 -0.015625,0.125 -0.015625,0.171875 0,0.046875 0.03125,0.125 0.125,0.125 0.109375,0 0.125,-0.0625 0.140625,-0.25 L 7.609375,-6.515625 C 7.640625,-6.78125 7.59375,-6.78125 7.34375,-6.78125 H 2.296875 c -0.1875,0 -0.296875,0 -0.296875,0.203125 0,0.109375 0.09375,0.109375 0.28125,0.109375 0.375,0 0.65625,0 0.65625,0.171875 0,0.046875 0,0.0625 -0.0625,0.25 L 1.5625,-0.78125 c -0.09375,0.390625 -0.109375,0.46875 -0.90625,0.46875 -0.171875,0 -0.28125,0 -0.28125,0.1875 C 0.375,0 0.46875,0 0.65625,0 h 5.171875 c 0.234375,0 0.25,-0.015625 0.3125,-0.171875 z m 0,0"
               id="id-2ce6d9a9-8a02-45d1-a47f-c0d3d13eb846" />
          </g>
        </g>
      </g>
      <g
         transform="matrix(2,0,0,2,110.0642,-46.520789)"
         ns2:version="1.9.0"
         ns2:texconverter="pdflatex"
         ns2:pdfconverter="inkscape"
         ns2:text="\\[\nE'\n\\]"
         ns2:preamble="/Users/johnmeneghini/Library/Application Support/org.inkscape.Inkscape/config/inkscape/extensions/textext/default_packages.tex"
         ns2:scale="2.0"
         ns2:alignment="middle center"
         ns2:stroke-to-path="0"
         id="g3179"
         ns2:jacobian_sqrt="2.0">
        <defs
           id="id-0e885a42-d921-49a2-809d-75ce557e3ff4" />
        <g
           fill="#000000"
           fill-opacity="1"
           id="id-49a52c44-6f6e-4678-8e25-2216c4a8ba1d"
           transform="translate(-300.637,-138.715)">
          <g
             transform="translate(300.262,146.72)"
             id="g3546">
            <path
               d="M 7.0625,-2.328125 C 7.078125,-2.375 7.109375,-2.4375 7.109375,-2.46875 c 0,0 0,-0.109375 -0.125,-0.109375 -0.09375,0 -0.109375,0.0625 -0.125,0.125 C 6.203125,-0.984375 5.84375,-0.3125 4.140625,-0.3125 H 2.6875 c -0.140625,0 -0.171875,0 -0.21875,0 -0.109375,-0.015625 -0.140625,-0.03125 -0.140625,-0.109375 0,-0.03125 0,-0.046875 0.046875,-0.21875 L 3.0625,-3.375 h 0.984375 c 0.84375,0 0.84375,0.21875 0.84375,0.46875 0,0.0625 0,0.1875 -0.0625,0.484375 C 4.8125,-2.375 4.796875,-2.34375 4.796875,-2.3125 c 0,0.046875 0.03125,0.109375 0.125,0.109375 C 5,-2.203125 5.03125,-2.25 5.078125,-2.40625 l 0.5625,-2.328125 c 0,-0.0625 -0.046875,-0.109375 -0.125,-0.109375 -0.078125,0 -0.109375,0.0625 -0.125,0.171875 -0.21875,0.765625 -0.390625,1 -1.3125,1 h -0.9375 l 0.59375,-2.40625 C 3.828125,-6.4375 3.84375,-6.46875 4.28125,-6.46875 H 5.6875 c 1.203125,0 1.515625,0.28125 1.515625,1.109375 0,0.234375 0,0.25 -0.046875,0.53125 0,0.046875 -0.015625,0.125 -0.015625,0.171875 0,0.046875 0.03125,0.125 0.125,0.125 0.109375,0 0.125,-0.0625 0.140625,-0.25 L 7.609375,-6.515625 C 7.640625,-6.78125 7.59375,-6.78125 7.34375,-6.78125 H 2.296875 c -0.1875,0 -0.296875,0 -0.296875,0.203125 0,0.109375 0.09375,0.109375 0.28125,0.109375 0.375,0 0.65625,0 0.65625,0.171875 0,0.046875 0,0.0625 -0.0625,0.25 L 1.5625,-0.78125 c -0.09375,0.390625 -0.109375,0.46875 -0.90625,0.46875 -0.171875,0 -0.28125,0 -0.28125,0.1875 C 0.375,0 0.46875,0 0.65625,0 h 5.171875 c 0.234375,0 0.25,-0.015625 0.3125,-0.171875 z m 0,0"
               id="id-2a99a249-51bd-4b20-bb68-076d6fdb4777" />
          </g>
        </g>
        <g
           fill="#000000"
           fill-opacity="1"
           id="id-e1c5fea3-28ff-4178-95b5-0c1af2216aad"
           transform="translate(-300.637,-138.715)">
          <g
             transform="translate(308.191,142.606)"
             id="g9554">
            <path
               d="m 2.015625,-3.296875 c 0.0625,-0.109375 0.0625,-0.171875 0.0625,-0.21875 0,-0.21875 -0.1875,-0.375 -0.40625,-0.375 -0.265625,0 -0.34375,0.21875 -0.375,0.328125 L 0.375,-0.546875 c -0.015625,0.015625 -0.046875,0.09375 -0.046875,0.109375 0,0.078125 0.21875,0.15625 0.28125,0.15625 0.046875,0 0.046875,-0.015625 0.09375,-0.125 z m 0,0"
               id="id-7d47213c-c6ca-4c41-8aae-c07325570527" />
          </g>
        </g>
      </g>
      <g
         transform="matrix(2,0,0,2,100.81027,57.846801)"
         ns2:version="1.9.0"
         ns2:texconverter="pdflatex"
         ns2:pdfconverter="inkscape"
         ns2:text="\\[\nE_e\n\\]"
         ns2:preamble="/Users/johnmeneghini/Library/Application Support/org.inkscape.Inkscape/config/inkscape/extensions/textext/default_packages.tex"
         ns2:scale="2.0"
         ns2:alignment="middle center"
         ns2:stroke-to-path="0"
         id="g7338"
         ns2:jacobian_sqrt="2.0">
        <defs
           id="id-ee9958b0-0257-46ea-ad29-eaaa53bdd940" />
        <g
           fill="#000000"
           fill-opacity="1"
           id="id-8018ec72-f4ca-489b-a6ad-a7e89bce3296"
           transform="translate(-300.183,-139.939)">
          <g
             transform="translate(299.808,146.72)"
             id="g1721">
            <path
               d="M 7.0625,-2.328125 C 7.078125,-2.375 7.109375,-2.4375 7.109375,-2.46875 c 0,0 0,-0.109375 -0.125,-0.109375 -0.09375,0 -0.109375,0.0625 -0.125,0.125 C 6.203125,-0.984375 5.84375,-0.3125 4.140625,-0.3125 H 2.6875 c -0.140625,0 -0.171875,0 -0.21875,0 -0.109375,-0.015625 -0.140625,-0.03125 -0.140625,-0.109375 0,-0.03125 0,-0.046875 0.046875,-0.21875 L 3.0625,-3.375 h 0.984375 c 0.84375,0 0.84375,0.21875 0.84375,0.46875 0,0.0625 0,0.1875 -0.0625,0.484375 C 4.8125,-2.375 4.796875,-2.34375 4.796875,-2.3125 c 0,0.046875 0.03125,0.109375 0.125,0.109375 C 5,-2.203125 5.03125,-2.25 5.078125,-2.40625 l 0.5625,-2.328125 c 0,-0.0625 -0.046875,-0.109375 -0.125,-0.109375 -0.078125,0 -0.109375,0.0625 -0.125,0.171875 -0.21875,0.765625 -0.390625,1 -1.3125,1 h -0.9375 l 0.59375,-2.40625 C 3.828125,-6.4375 3.84375,-6.46875 4.28125,-6.46875 H 5.6875 c 1.203125,0 1.515625,0.28125 1.515625,1.109375 0,0.234375 0,0.25 -0.046875,0.53125 0,0.046875 -0.015625,0.125 -0.015625,0.171875 0,0.046875 0.03125,0.125 0.125,0.125 0.109375,0 0.125,-0.0625 0.140625,-0.25 L 7.609375,-6.515625 C 7.640625,-6.78125 7.59375,-6.78125 7.34375,-6.78125 H 2.296875 c -0.1875,0 -0.296875,0 -0.296875,0.203125 0,0.109375 0.09375,0.109375 0.28125,0.109375 0.375,0 0.65625,0 0.65625,0.171875 0,0.046875 0,0.0625 -0.0625,0.25 L 1.5625,-0.78125 c -0.09375,0.390625 -0.109375,0.46875 -0.90625,0.46875 -0.171875,0 -0.28125,0 -0.28125,0.1875 C 0.375,0 0.46875,0 0.65625,0 h 5.171875 c 0.234375,0 0.25,-0.015625 0.3125,-0.171875 z m 0,0"
               id="id-21677db4-c6e2-472b-89ce-72a82637539b" />
          </g>
        </g>
        <g
           fill="#000000"
           fill-opacity="1"
           id="id-2779d653-fb84-48ce-8caf-141a6fde7d72"
           transform="translate(-300.183,-139.939)">
          <g
             transform="translate(307.162,148.214)"
             id="g8750">
            <path
               d="m 1.5625,-1.59375 c 0.1875,0 0.75,-0.015625 1.125,-0.140625 0.515625,-0.1875 0.609375,-0.515625 0.609375,-0.71875 0,-0.390625 -0.390625,-0.625 -0.859375,-0.625 -0.84375,0 -1.96875,0.640625 -1.96875,1.84375 0,0.703125 0.4375,1.296875 1.25,1.296875 1.1875,0 1.734375,-0.6875 1.734375,-0.78125 0,-0.046875 -0.0625,-0.125 -0.125,-0.125 -0.03125,0 -0.046875,0.015625 -0.109375,0.078125 C 2.671875,-0.125 1.859375,-0.125 1.734375,-0.125 1.3125,-0.125 1.03125,-0.40625 1.03125,-0.96875 c 0,-0.09375 0,-0.234375 0.09375,-0.625 z M 1.171875,-1.78125 C 1.46875,-2.796875 2.234375,-2.875 2.4375,-2.875 2.734375,-2.875 3,-2.71875 3,-2.453125 3,-1.78125 1.8125,-1.78125 1.515625,-1.78125 Z m 0,0"
               id="id-77a8c33c-21ab-4d76-906e-fbbcc19ee6c4" />
          </g>
        </g>
      </g>
      <g
         transform="matrix(2,0,0,2,140.36854,-2.7275939)"
         ns2:version="1.9.0"
         ns2:texconverter="pdflatex"
         ns2:pdfconverter="inkscape"
         ns2:text="\\[\n\\theta\n\\]\n\n\\[\n\\theta_e\n\\]"
         ns2:preamble="/Users/johnmeneghini/Library/Application Support/org.inkscape.Inkscape/config/inkscape/extensions/textext/default_packages.tex"
         ns2:scale="2.0"
         ns2:alignment="middle center"
         ns2:stroke-to-path="0"
         id="g7223"
         ns2:jacobian_sqrt="2.0">
        <defs
           id="id-9b3d2f8e-2a94-4254-984e-574acee4d253" />
        <g
           fill="#000000"
           fill-opacity="1"
           id="id-df988d2d-9cd4-425c-87cf-e19d6130afcf"
           transform="translate(-307.70149,-137.94355)">
          <g
             transform="translate(303.147,146.72)"
             id="g9895">
            <path
               d="m 4.53125,-4.984375 c 0,-0.65625 -0.171875,-2.046875 -1.1875,-2.046875 -1.390625,0 -2.921875,2.8125 -2.921875,5.09375 0,0.9375 0.28125,2.046875 1.1875,2.046875 1.40625,0 2.921875,-2.859375 2.921875,-5.09375 z M 1.46875,-3.625 C 1.640625,-4.25 1.84375,-5.046875 2.25,-5.765625 2.515625,-6.25 2.875,-6.8125 3.328125,-6.8125 c 0.484375,0 0.546875,0.640625 0.546875,1.203125 0,0.5 -0.078125,1 -0.3125,1.984375 z m 2,0.328125 C 3.359375,-2.84375 3.15625,-2 2.765625,-1.28125 c -0.34375,0.6875 -0.71875,1.171875 -1.15625,1.171875 -0.328125,0 -0.53125,-0.296875 -0.53125,-1.21875 0,-0.421875 0.0625,-1 0.3125,-1.96875 z m 0,0"
               id="id-7b9dbe8c-3cda-42ca-9db6-4816d982c839" />
          </g>
        </g>
        <g
           fill="#000000"
           fill-opacity="1"
           id="id-c53af798-1511-4dad-902c-630f4865f49e"
           transform="translate(-305.64254,-150.25664)">
          <g
             transform="translate(301.146,176.608)"
             id="g97">
            <path
               d="m 4.53125,-4.984375 c 0,-0.65625 -0.171875,-2.046875 -1.1875,-2.046875 -1.390625,0 -2.921875,2.8125 -2.921875,5.09375 0,0.9375 0.28125,2.046875 1.1875,2.046875 1.40625,0 2.921875,-2.859375 2.921875,-5.09375 z M 1.46875,-3.625 C 1.640625,-4.25 1.84375,-5.046875 2.25,-5.765625 2.515625,-6.25 2.875,-6.8125 3.328125,-6.8125 c 0.484375,0 0.546875,0.640625 0.546875,1.203125 0,0.5 -0.078125,1 -0.3125,1.984375 z m 2,0.328125 C 3.359375,-2.84375 3.15625,-2 2.765625,-1.28125 c -0.34375,0.6875 -0.71875,1.171875 -1.15625,1.171875 -0.328125,0 -0.53125,-0.296875 -0.53125,-1.21875 0,-0.421875 0.0625,-1 0.3125,-1.96875 z m 0,0"
               id="id-7f37ca6d-7256-4b02-93d0-4990b3af7575" />
          </g>
        </g>
        <g
           fill="#000000"
           fill-opacity="1"
           id="id-ef7e9bf2-3d57-49cb-893b-18473d0e7d99"
           transform="translate(-306.0474,-150.02992)">
          <g
             transform="translate(305.823,178.102)"
             id="g6976">
            <path
               d="m 1.5625,-1.59375 c 0.1875,0 0.75,-0.015625 1.125,-0.140625 0.515625,-0.1875 0.609375,-0.515625 0.609375,-0.71875 0,-0.390625 -0.390625,-0.625 -0.859375,-0.625 -0.84375,0 -1.96875,0.640625 -1.96875,1.84375 0,0.703125 0.4375,1.296875 1.25,1.296875 1.1875,0 1.734375,-0.6875 1.734375,-0.78125 0,-0.046875 -0.0625,-0.125 -0.125,-0.125 -0.03125,0 -0.046875,0.015625 -0.109375,0.078125 C 2.671875,-0.125 1.859375,-0.125 1.734375,-0.125 1.3125,-0.125 1.03125,-0.40625 1.03125,-0.96875 c 0,-0.09375 0,-0.234375 0.09375,-0.625 z M 1.171875,-1.78125 C 1.46875,-2.796875 2.234375,-2.875 2.4375,-2.875 2.734375,-2.875 3,-2.71875 3,-2.453125 3,-1.78125 1.8125,-1.78125 1.515625,-1.78125 Z m 0,0"
               id="id-65c9141d-0a5a-47ac-8bd0-f4dc764ff875" />
          </g>
        </g>
      </g>
    </g>
  </g>
</svg>
